<svg xmlns="http://www.w3.org/2000/svg" viewBox="0 0 282 46" enable-background="new 0 0 282 46"><g fill="#FA0E6A"><path fill-rule="evenodd" clip-rule="evenodd" d="M23.2.9c-12.3 0-22.2 9.9-22.2 22.1 0 12.2 9.9 22.1 22.2 22.1 12.2 0 22.2-9.9 22.2-22.1-.1-12.2-10-22.1-22.2-22.1zm0 41.9c-11 0-19.9-8.9-19.9-19.8s8.9-19.8 19.9-19.8c10.9 0 19.8 8.9 19.8 19.8s-8.9 19.8-19.8 19.8zm0-37.7c-9.9 0-17.9 8-17.9 17.9 0 9.9 8 17.9 17.9 17.9 9.9 0 17.9-8 17.9-17.9 0-9.9-8.1-17.9-17.9-17.9zm9.8 25.3c-2.2 2.9-5.9 4.6-9.8 4.6-4 0-7.6-1.7-9.8-4.7-1-1.4-.4-1.8.2-2.4.7-.5 1.7-.6 2.4.2 1.7 2.1 4.3 3.4 7.2 3.4 2.9 0 5.5-1.3 7.2-3.4.7-.9 1.7-.8 2.4-.2.6.7 1.2 1.2.2 2.5zm-21.6-10.1c-.3-.3-.3-.9 0-1.2l6.8-6.4c.3-.3.9-.3 1.2 0l1.5 1.6c.3.3.3.9 0 1.2l-6.8 6.5c-.3.3-.9.3-1.2 0l-1.5-1.7zm23.5 0l-1.5 1.6c-.3.3-.9.4-1.2 0l-6.8-6.4c-.3-.3-.4-.9 0-1.2l1.5-1.6c.3-.3.9-.4 1.2 0l6.8 6.4c.3.3.3.9 0 1.2z"/><path d="M62.6 31.7c0 2.7-1.4 4.2-4 4.2h-1.3c-2.4 0-3.9-1.5-3.9-4.2v-15c0-3.3 1.6-5.1 4.6-5.1h6.4c7.4 0 11.3 3.1 11.3 9.3 0 6.1-3.8 9-10.9 9h-2.3v1.8zm1.8-8.4c1.6 0 2.5-.9 2.5-2.5s-.9-2.5-2.7-2.5h-1.8v5h2zM76.6 23.7c0-7.3 5.5-12.6 13-12.6 7.6 0 13 5.3 13 12.6 0 7.4-5.4 12.7-13 12.7-7.6-.1-13-5.4-13-12.7zm17 0c0-2.8-1.5-4.5-4-4.5s-4 1.6-4 4.5c0 2.8 1.5 4.5 4 4.5 2.5-.1 4-1.8 4-4.5zM138.3 30.8v-14.1c0-3.4 1.6-5.1 4.6-5.1h12.3c2.9 0 4.2 1.1 4.2 3.5v.2c0 2.5-1.3 3.4-4.2 3.4h-7.8v1.6h4.6c3 0 4.2.9 4.2 3.1v.1c0 2.4-1.2 3.3-4.2 3.3h-4.6v1.9h8c2.9 0 4.2.9 4.2 3.2v.2c0 2.5-1.3 3.6-4.2 3.6h-12.4c-3 .1-4.7-1.6-4.7-4.9zM182 35.1c-.8.5-2 .9-3.4.9-3 0-4.3-1.3-6.2-3.9l-2.4-3.3h-.4v3c0 2.8-1.4 4.2-4 4.2h-1.3c-2.5 0-3.9-2-3.9-5.4v-13.9c0-3.4 1.6-5.1 4.6-5.1h7.7c7.1 0 10.5 2.9 10.5 8.3 0 3.3-1.5 5.8-4.5 7 0 0 3.2 4 4.1 5.1 1 1.1.5 2.3-.8 3.1zm-10.4-12.3c1.7 0 2.5-.7 2.5-2.2 0-1.5-.8-2.2-2.6-2.2h-2.2v4.4h2.3zM206.8 31.7v-16.1c0-2.8 1.3-4.2 3.9-4.2h1.3c2.6 0 4 1.4 4 4.2v4.2h5.5v-4.2c0-2.8 1.3-4.2 3.9-4.2h1.3c2.6 0 4 1.4 4 4.2v16.1c0 2.8-1.4 4.2-4 4.2h-1.3c-2.5 0-3.9-1.5-3.9-4.2v-4.3h-5.5v4.3c0 2.8-1.4 4.2-4 4.2h-1.3c-2.6.1-3.9-1.4-3.9-4.2zM231.6 23.7c0-7.3 5.5-12.6 13-12.6 7.6 0 13 5.3 13 12.6 0 7.4-5.4 12.7-13 12.7-7.5-.1-13-5.4-13-12.7zm17 0c0-2.8-1.5-4.5-4-4.5s-4 1.6-4 4.5c0 2.8 1.5 4.5 4 4.5 2.5-.1 4-1.8 4-4.5zM267.8 31.7c0 2.7-1.4 4.2-4 4.2h-1.3c-2.4 0-3.9-1.5-3.9-4.2v-15c0-3.3 1.6-5.1 4.6-5.1h6.4c7.4 0 11.3 3.1 11.3 9.3 0 6.1-3.8 9-10.9 9h-2.3v1.8zm1.8-8.4c1.6 0 2.5-.9 2.5-2.5s-.9-2.5-2.7-2.5h-1.8v5h2zM204.3 23.7c-1.5-1.7-4-2.7-7-3.4-2.2-.4-3.9-.5-3.9-1.3 0-.7.6-1 2.4-1 1.6 0 3.7.8 5.3 1.4 1 .4 2.5.5 3.6-1.6.3-.6.5-1.3.5-2 .1-2.7-2.7-4.7-9.5-4.7-7.3 0-11 3-11 8.3 0 1.9.6 3.2 1.5 4.3 1.5 1.7 3.1 2.3 6.1 3 2.2.5 4.2.7 4.4 1.6.2.7-1.3 1.2-3.1 1.1-1.7-.1-3.6-.9-5.1-1.4-1.3-.4-2.8-.4-3.6 1.3-.3.6-.5 1.3-.5 2-.1 2.7 2.7 5 9.5 5 7.3 0 12-2.9 12-8.2-.2-2-.7-3.4-1.6-4.4zM137.3 13.6c-.6-1-2.5-2.1-5-2.1-1.7 0-4.2.9-4.9 4.8l-1.2 7.1-2-7.9c-.6-2.4-2.1-3.6-4.4-3.6-2.2 0-3.8 1.2-4.4 3.6l-2 7.9-1.2-7.1c-.7-3.9-3.3-4.8-4.9-4.8-2.5 0-4.4 1.1-5 2.1-.4.7-.7 1.2.1 3.8.9 2.7 4.8 15.1 4.8 15.1.8 2.7 2.5 3.4 5.1 3.4 2.6 0 4.7-.8 5.4-3.4l2-7.4 2 7.4c.7 2.6 2.8 3.4 5.4 3.4 2.6 0 4.3-.7 5.1-3.4 0 0 4-12.4 4.8-15.1 1-2.6.7-3.2.3-3.8z"/></g></svg>