<?xml version="1.0" encoding="utf-8"?>
<!-- Generator: Adobe Illustrator 19.2.1, SVG Export Plug-In . SVG Version: 6.00 Build 0)  -->
<svg version="1.1" id="Layer_1" xmlns="http://www.w3.org/2000/svg" xmlns:xlink="http://www.w3.org/1999/xlink" x="0px" y="0px"
	 viewBox="0 0 148.8 24.6" style="enable-background:new 0 0 148.8 24.6;" xml:space="preserve">
<style type="text/css">
	.st0{fill:#00CCED;}
</style>
<title>Sailthru</title>
<g>
	<path class="st0" d="M27,0.6l-8.7,22h5.9l1.6-4h8.3l1.6,4h6.1l-8.7-22H27z M27.6,13.6l2.4-6.5l2.4,6.5H27.6z"/>
	<rect x="43" y="0.6" class="st0" width="6" height="22"/>
	<polygon class="st0" points="57,0.6 51,0.6 51,22.6 65.7,22.6 66.6,17.6 57,17.6 	"/>
	<polygon class="st0" points="97,8.6 89,8.6 89,0.6 64.6,0.6 63.7,5.6 70.8,5.6 67.7,22.6 73.7,22.6 76.8,5.6 83,5.6 83,22.6 
		89,22.6 89,13.6 97,13.6 97,22.6 103,22.6 103,0.6 97,0.6 	"/>
	<path class="st0" d="M12.9,9.6l-4.5-1C7.2,8.3,6.5,7.7,6.5,6.7c0-1.3,1.2-1.7,2.9-1.7c2,0,3,0.6,3.5,2.6h5.9
		c-0.6-5-3.8-7.4-9.4-7.4c-5.1,0-8.8,2.8-8.8,7.3c0,3.9,2.5,5.6,5.9,6.3l4.4,0.9c1.5,0.3,2.2,0.8,2.2,1.9c0,1.4-1.3,1.8-3.1,1.8
		c-1.9,0-3.2-0.8-3.7-2.8H0c0.8,5,4.6,7.6,10.1,7.6c5,0,9-2.5,9-7.2C19,12.5,16.8,10.5,12.9,9.6z"/>
	<path class="st0" d="M125.4,8.3c0-5-3.4-7.6-8.3-7.6h-10v22h6v-7h1.7l4.8,7h6.7l-5.4-7.8C123.6,13.8,125.4,11.8,125.4,8.3z
		 M116.4,10.6H113v-6h3.4c2.1,0,3.1,1.3,3.1,3C119.5,9.3,118.5,10.6,116.4,10.6z"/>
	<path class="st0" d="M142,0.6v12.7c0,3.3-1.5,4.9-4,4.9c-2.5,0-4-1.7-4-4.9V0.6h-6v13.2c0,6.3,4,9.8,10,9.8c6.1,0,10-3.4,10-9.7
		V0.6H142z"/>
</g>
</svg>
