<?xml version="1.0" encoding="utf-8"?>
<!-- Generator: Adobe Illustrator 20.1.0, SVG Export Plug-In . SVG Version: 6.00 Build 0)  -->
<svg version="1.1" id="Layer_1" xmlns="http://www.w3.org/2000/svg" xmlns:xlink="http://www.w3.org/1999/xlink" x="0px" y="0px"
	 viewBox="0 0 1357.5 210.8" style="enable-background:new 0 0 1357.5 210.8;" xml:space="preserve">
<style type="text/css">
	.st0{fill:#41C0BA;}
	.st1{fill:#052433;}
</style>
<path class="st0" d="M72.3,47c2.8-1.6,2.8-4.3,0-5.9L10,4.5C7.2,2.9,5,4.2,5,7.4v29.2c0,3.2,2.3,7.2,5,8.9l26.8,16.1
	c2.8,1.7,7.3,1.7,10.1,0.1L72.3,47z"/>
<path class="st1" d="M763.8,58.3c-0.9-1.7-2.1-1.7-3,0L742.2,94c-0.7,1.4-1.8,2.1-2.9,2.1c-1.1,0-2.2-0.7-2.9-2.1l-18.7-35.7
	c-0.9-1.7-2.1-1.7-2.9,0l-50.5,96.3c-0.4,0.8-0.5,1.6-0.2,2.2c0.4,0.5,1.1,0.9,2,0.9h15.1c2.3,0,5.1-1.7,6.2-3.8l25.9-49.5
	c0.8-1.4,1.7-2.1,2.9-2.1c1.2,0,2.2,0.8,2.9,2.1l6.4,12.3c1.3,2.6,1.3,6.5,0,9.1l-15.1,28.9c-0.5,0.8-0.5,1.6-0.2,2.2
	c0.4,0.5,1.1,0.9,2,0.9h15.1c2.3,0,5.1-1.7,6.2-3.8l2.9-5.5c0.7-1.4,1.8-2.1,2.9-2.1c1.1,0,2.2,0.8,2.9,2.1l2.9,5.5
	c1.1,2.1,3.9,3.8,6.2,3.8h15.1c1,0,1.7-0.3,2-0.9c0.3-0.6,0.2-1.3-0.2-2.2L753,125.8c-1.3-2.5-1.3-6.5,0-9.1l6.4-12.3
	c0.8-1.4,1.8-2.1,2.9-2.1c1.2,0,2.2,0.8,2.9,2.1l25.9,49.5c1,2.1,3.9,3.8,6.2,3.8h15.1c0.9,0,1.7-0.3,2-0.9c0.3-0.6,0.3-1.3-0.2-2.2
	L763.8,58.3z"/>
<path class="st1" d="M353.4,126.3c0-17.7-11.9-24.3-31.3-29.3c-17.5-4.5-22.2-6.7-22.2-14v-0.3c0-5.8,5.4-9.5,13.7-9.5
	c3.8,0,7.7,0.7,11.8,2.2c0.8,0.3,3.5,1.1,6.8,1.1c3.1,0,5.8-0.8,7.9-2.3l4.3-3c1.4-1,2.2-2.5,2.1-4c-0.1-1.7-1.1-3.2-2.7-4.2
	c-8.8-5.1-18.8-7.8-29.8-7.8c-20.5,0-34.3,11.9-34.3,29.5v0.3c0,20,13.5,25,32.6,29.9c16.3,4.2,20.8,7.1,20.8,13.5v0.3
	c0,6.3-5.8,10.3-15.2,10.3c-6.6,0-12.7-1.5-18.8-4.6c-2.1-1.1-4.1-1.6-6.2-1.6c-3.7,0-6,1.7-6.1,1.8c-0.1,0-3.2,2.1-6.9,4.6
	c-1.1,0.8-1.7,1.6-1.7,2.5c0,1.2,0.9,2.4,1.8,3.1c10.6,7.8,24,12.2,37.5,12.2c22.3,0,36.1-11.6,36.1-30.3V126.3z"/>
<path class="st1" d="M479.8,60.1c0.4-0.9,0.3-1.8-0.1-2.4c-0.4-0.6-1.2-1-2.2-1h-73.7c-1,0-1.8,0.3-2.2,1c-0.4,0.6-0.4,1.5-0.1,2.4
	l4.4,11.6c0.8,2.1,3.4,3.9,5.6,3.9h13.4c3,0,5.5,2.5,5.5,5.5v70.6c0,2.2,1.7,3.9,3.9,3.9h12.7c2.2,0,3.9-1.8,3.9-3.9V81
	c0-3,2.5-5.5,5.5-5.5h13.5c2.3,0,4.8-1.8,5.6-3.9L479.8,60.1z"/>
<path class="st1" d="M1337,60.1c0.4-0.9,0.3-1.8-0.1-2.4c-0.5-0.6-1.3-1-2.2-1H1261c-1,0-1.8,0.3-2.2,1c-0.4,0.6-0.4,1.5-0.1,2.4
	l4.4,11.6c0.8,2.1,3.4,3.9,5.7,3.9h13.3c3.1,0,5.5,2.5,5.5,5.5v70.6c0,2.2,1.8,3.9,3.9,3.9h12.7c2.2,0,3.9-1.8,3.9-3.9V81
	c0-3,2.5-5.5,5.5-5.5h13.5c2.3,0,4.8-1.8,5.6-3.9L1337,60.1z"/>
<path class="st1" d="M618.9,140.8c0.3-0.9,0.3-1.8-0.2-2.4c-0.4-0.6-1.2-0.9-2.2-0.9h-45.1c-3,0-5.5-2.5-5.5-5.5v-11.7
	c0-3,2.5-5.5,5.5-5.5H602c2.2,0,4.8-1.8,5.6-3.9l4.1-10.9c0.3-0.9,0.3-1.8-0.1-2.4c-0.4-0.6-1.2-0.9-2.2-0.9h-38.5
	c-3,0-5.5-2.5-5.5-5.5V80.3c0-3,2.5-5.5,5.5-5.5H610c2.3,0,4.9-1.8,5.7-3.9l4-10.8c0.4-0.9,0.3-1.8-0.1-2.4c-0.4-0.6-1.2-1-2.2-1
	h-76.7c-0.6,0-1.2,0.1-1.7,0.7c-0.4,0.6-0.3,1.5,0.1,2.5l4.5,10.2c1.1,2.5,2,6.7,2,9.3v72.2c0,2.2,1.8,3.9,3.9,3.9h59.7
	c2.2,0,4.8-1.8,5.6-3.9L618.9,140.8z"/>
<path class="st1" d="M1097,105.8c0-29-22.5-50.8-52.4-50.8c-29.5,0-52.7,22.4-52.7,51.1v0.3c0,29,22.5,50.9,52.4,50.9
	c29.6,0,52.7-22.5,52.7-51.1V105.8z M1075.4,106.4c0,18.3-13.3,32-30.9,32c-17.5,0-31.2-14.2-31.2-32.3v-0.3
	c0-18.3,13.3-32.1,30.9-32.1c17.5,0,31.2,14.2,31.2,32.3V106.4z"/>
<path class="st1" d="M934.6,106.3l-0.5-0.5l0.5-0.5c4.9-5.4,7.6-12.3,7.6-19.5c0-15.8-12.7-28.7-28.4-29.1l-0.6,0h-54
	c-1.1,0-1.4,0.5-1.5,0.6c-0.6,1.2,0.5,3.9,1,4.8l4.7,10.5c0,0,0.9,1.7,0.9,5.5v72c0,5,2.8,5.4,3.8,5.4h0.1l45.7,0
	c15.8-0.4,28.6-13.4,28.6-29.4C942.4,118.9,939.7,111.8,934.6,106.3z M884.2,80.8c0-0.1,0-2.6,1.7-4.3c1.1-1.1,2.6-1.6,4.4-1.6
	c0.4,0,0.8,0,1,0h0.1l22.6,0.1c5.7,0.4,10.1,5.1,10.1,10.9c0,6-4.9,10.9-10.9,10.9l-21.8-0.1c0,0-0.2,0-1.1,0
	c-1.8,0-3.3-0.6-4.4-1.6c-1.7-1.8-1.7-4.2-1.7-4.3V80.8z M913.9,137.4L913.9,137.4l-0.8,0.1h-22.4c-1.8,0-3.3-0.6-4.4-1.6
	c-1.7-1.7-1.7-4.2-1.7-4.4v-10.9c0.2-2.7,1.8-5.6,5.9-5.7h22.5c6.1,0,11.2,5.1,11.2,11.3C924.3,132.1,919.7,137,913.9,137.4z"/>
<path class="st1" d="M1223.2,140.1c0.5-0.9,0.5-1.6,0.1-2.2c-0.3-0.5-1.1-0.9-2.1-0.9h-40.6c-3,0-5.5-2.5-5.5-5.5V60.7
	c0-2.2-1.8-3.9-4-3.9h-21.1c-0.6,0-1,0.2-1.2,0.6c-0.5,0.6-0.5,1.6-0.1,2.7l4.1,10.8c1,2.5,1.7,6.7,1.7,9.4v71.3
	c0,2.2,1.8,3.9,3.9,3.9h52.6c2.3,0,5.1-1.7,6.1-3.8L1223.2,140.1z"/>
<path class="st0" d="M90.7,207.8c1.7,0,3.5-0.5,5.1-1.4c5.9-3.3,75.2-44.4,75.2-44.4c2.7-1.6,5-5.6,5-8.9v-29.2
	c0-3.2-2.3-4.5-5.1-2.9L60.2,185.8c-2.8,1.6-2.8,4.3,0,5.9l20.1,11.6C83.2,204.9,87.7,207.8,90.7,207.8z"/>
<path class="st0" d="M120.7,132.7c2.8-1.6,2.8-4.3,0-5.9L10,61.9C7.2,60.3,5,61.6,5,64.8V94c0,3.2,2.3,7.2,5.1,8.8l75.1,44.4
	c2.8,1.6,7.4,1.7,10.1,0.1L120.7,132.7z"/>
<path class="st0" d="M72.3,162.2c2.8-1.6,2.8-4.3,0-5.9L10,119.7c-2.8-1.6-5.1-0.3-5.1,2.9v29.2c0,3.2,2.3,7.2,5,8.9l26.8,16.1
	c2.8,1.7,7.3,1.7,10.1,0.1L72.3,162.2z"/>
<path class="st0" d="M176.1,65.8c0-3.2-2.3-4.5-5.1-2.9l-62.3,36.6c-2.8,1.6-2.8,4.3,0,5.9l25.5,14.7c2.8,1.6,7.3,1.6,10.1-0.1
	l26.8-16.1c2.8-1.7,5-5.6,5-8.9V65.8z"/>
<path class="st0" d="M171,4.7l-47.6,28c-0.3,0.1-0.6,0.2-0.9,0.4L60.3,69.7c-0.5,0.3-0.8,0.6-1.2,0.9c-1.2,1.3-1.2,2.8,0,4.1
	c0.3,0.4,0.8,0.8,1.4,1.1l25.5,14.7c2.8,1.6,7.3,1.6,10.1-0.1l10.1-6.1c20-11.9,64.9-38.6,64.9-38.6c2.8-1.7,5-5.6,5-8.9V7.6
	C176.1,4.4,173.8,3.1,171,4.7z"/>
</svg>
